<svg xmlns="http://www.w3.org/2000/svg" xmlns:xlink="http://www.w3.org/1999/xlink" width="420.0mm" height="297.0mm" viewBox="0 0 420.0 297.0"><rect x="0" y="0" width="420.0" height="297.0" fill="#ffffff" /><defs /><g id="backgrounds_z0"><g id="title1"><rect x="313.75" y="10.0" width="96.25" height="20.56" fill="#ffffff" stroke="none" /></g><g id="title2"><rect x="212.5" y="10.0" width="96.25" height="20.56" fill="#ffffff" stroke="none" /></g><g id="title3"><rect x="111.25" y="10.0" width="96.25" height="20.56" fill="#ffffff" stroke="none" /></g><g id="title4"><rect x="10.0" y="10.0" width="96.25" height="20.56" fill="#ffffff" stroke="none" /></g><g id="p11"><rect x="313.75" y="35.56" width="96.25" height="59.11" fill="#ffffff" stroke="none" /></g><g id="p21"><rect x="212.5" y="35.56" width="96.25" height="59.11" fill="#ffffff" stroke="none" /></g><g id="p31"><rect x="111.25" y="35.56" width="96.25" height="59.11" fill="#ffffff" stroke="none" /></g><g id="p41"><rect x="10.0" y="35.56" width="96.25" height="59.11" fill="#ffffff" stroke="none" /></g><g id="p12"><rect x="313.75" y="99.67" width="96.25" height="59.11" fill="#ffffff" stroke="none" /></g><g id="p22"><rect x="212.5" y="99.67" width="96.25" height="59.11" fill="#ffffff" stroke="none" /></g><g id="p32"><rect x="111.25" y="99.67" width="96.25" height="59.11" fill="#ffffff" stroke="none" /></g><g id="p42"><rect x="10.0" y="99.67" width="96.25" height="59.11" fill="#ffffff" stroke="none" /></g><g id="p13"><rect x="313.75" y="163.78" width="96.25" height="59.11" fill="#ffffff" stroke="none" /></g><g id="p23"><rect x="212.5" y="163.78" width="96.25" height="59.11" fill="#ffffff" stroke="none" /></g><g id="p33"><rect x="111.25" y="163.78" width="96.25" height="59.11" fill="#ffffff" stroke="none" /></g><g id="p43"><rect x="10.0" y="163.78" width="96.25" height="59.11" fill="#ffffff" stroke="none" /></g><g id="p14"><rect x="313.75" y="227.89" width="96.25" height="59.11" fill="#ffffff" stroke="none" /></g><g id="p24"><rect x="212.5" y="227.89" width="96.25" height="59.11" fill="#ffffff" stroke="none" /></g><g id="p34"><rect x="111.25" y="227.89" width="96.25" height="59.11" fill="#ffffff" stroke="none" /></g><g id="p44"><rect x="10.0" y="227.89" width="96.25" height="59.11" fill="#ffffff" stroke="none" /></g></g><g id="borders_z0"><g id="title1_borders"><rect x="313.75" y="10.0" width="96.25" height="20.56" fill="none" stroke="#000000" stroke-width="0.5" /></g><g id="title2_borders"><rect x="212.5" y="10.0" width="96.25" height="20.56" fill="none" stroke="#000000" stroke-width="0.5" /></g><g id="title3_borders"><rect x="111.25" y="10.0" width="96.25" height="20.56" fill="none" stroke="#000000" stroke-width="0.5" /></g><g id="title4_borders"><rect x="10.0" y="10.0" width="96.25" height="20.56" fill="none" stroke="#000000" stroke-width="0.5" /></g><g id="p11_borders"><rect x="313.75" y="35.56" width="96.25" height="59.11" fill="none" stroke="#000000" stroke-width="0.5" /></g><g id="p21_borders"><rect x="212.5" y="35.56" width="96.25" height="59.11" fill="none" stroke="#000000" stroke-width="0.5" /></g><g id="p31_borders"><rect x="111.25" y="35.56" width="96.25" height="59.11" fill="none" stroke="#000000" stroke-width="0.5" /></g><g id="p41_borders"><rect x="10.0" y="35.56" width="96.25" height="59.11" fill="none" stroke="#000000" stroke-width="0.5" /></g><g id="p12_borders"><rect x="313.75" y="99.67" width="96.25" height="59.11" fill="none" stroke="#000000" stroke-width="0.5" /></g><g id="p22_borders"><rect x="212.5" y="99.67" width="96.25" height="59.11" fill="none" stroke="#000000" stroke-width="0.5" /></g><g id="p32_borders"><rect x="111.25" y="99.67" width="96.25" height="59.11" fill="none" stroke="#000000" stroke-width="0.5" /></g><g id="p42_borders"><rect x="10.0" y="99.67" width="96.25" height="59.11" fill="none" stroke="#000000" stroke-width="0.5" /></g><g id="p13_borders"><rect x="313.75" y="163.78" width="96.25" height="59.11" fill="none" stroke="#000000" stroke-width="0.5" /></g><g id="p23_borders"><rect x="212.5" y="163.78" width="96.25" height="59.11" fill="none" stroke="#000000" stroke-width="0.5" /></g><g id="p33_borders"><rect x="111.25" y="163.78" width="96.25" height="59.11" fill="none" stroke="#000000" stroke-width="0.5" /></g><g id="p43_borders"><rect x="10.0" y="163.78" width="96.25" height="59.11" fill="none" stroke="#000000" stroke-width="0.5" /></g><g id="p14_borders"><rect x="313.75" y="227.89" width="96.25" height="59.11" fill="none" stroke="#000000" stroke-width="0.5" /></g><g id="p24_borders"><rect x="212.5" y="227.89" width="96.25" height="59.11" fill="none" stroke="#000000" stroke-width="0.5" /></g><g id="p34_borders"><rect x="111.25" y="227.89" width="96.25" height="59.11" fill="none" stroke="#000000" stroke-width="0.5" /></g><g id="p44_borders"><rect x="10.0" y="227.89" width="96.25" height="59.11" fill="none" stroke="#000000" stroke-width="0.5" /></g></g></svg>