<svg xmlns="http://www.w3.org/2000/svg" xmlns:xlink="http://www.w3.org/1999/xlink" width="420.0mm" height="297.0mm" viewBox="0 0 420.0 297.0"><rect x="0" y="0" width="420.0" height="297.0" fill="#ffffff" /><defs><clipPath id="clip_action"><rect x="291.5350943937188" y="10.0" width="118.4649056062812" height="257.0" /></clipPath><clipPath id="clip_action_car"><rect x="10.0" y="10.0" width="309.1406597093337" height="224.18334968453058" /></clipPath><clipPath id="clip_enemy_closeup_lower"><rect x="170.5" y="212.67592376850158" width="155.9649056062812" height="74.32407623149842" /></clipPath><clipPath id="clip_megumi_face"><rect x="10.0" y="184.37544336479294" width="146.5" height="102.62455663520706" /></clipPath></defs><g id="backgrounds_z0"><g id="action"><polygon points="291.5350943937188,10.0 410.0,10.0 410.0,267.0 327.65408891223336,267.0" fill="#ffffff" stroke="none" /></g><g id="action_car"><polygon points="10.0,10.0 287.5350943937188,10.0 315.1598008628209,234.18334968453058 10.0,180.37544336479294" fill="#ffffff" stroke="none" /></g><g id="enemy_closeup_lower"><polygon points="170.5,212.67592376850158 315.7219642016304,238.28247424872785 326.4649056062812,287.0 170.5,287.0" fill="#ffffff" stroke="none" /></g><g id="megumi_face"><polygon points="10.0,184.37544336479294 156.5,210.20734603858307 156.5,287.0 10.0,287.0" fill="#ffffff" stroke="none" /></g></g><g id="borders_z0"><g id="action_borders" clip-path="url(#clip_action)" /><line x1="291.5350943937188" y1="10.0" x2="327.65408891223336" y2="267.0" stroke="#000000" stroke-width="0.5" /><line x1="291.5350943937188" y1="10.0" x2="410.0" y2="10.0" stroke="#000000" stroke-width="0.5" /><line x1="327.65408891223336" y1="267.0" x2="410.0" y2="267.0" stroke="#000000" stroke-width="0.5" /><g id="action_car_borders" clip-path="url(#clip_action_car)" /><line x1="287.5350943937188" y1="10.0" x2="319.1406597093337" y2="234.88528250556277" stroke="#000000" stroke-width="0.5" /><line x1="10.0" y1="10.0" x2="287.5350943937188" y2="10.0" stroke="#000000" stroke-width="0.5" /><line x1="10.0" y1="180.37544336479294" x2="319.1406597093337" y2="234.88528250556277" stroke="#000000" stroke-width="0.5" /><g id="enemy_closeup_lower_borders" clip-path="url(#clip_enemy_closeup_lower)" /><line x1="170.5" y1="212.67592376850158" x2="170.5" y2="287.0" stroke="#000000" stroke-width="0.5" /><line x1="319.7171080969443" y1="238.9869259092844" x2="326.4649056062812" y2="287.0" stroke="#000000" stroke-width="0.5" /><line x1="170.5" y1="212.67592376850158" x2="319.71710809694423" y2="238.9869259092844" stroke="#000000" stroke-width="0.5" /><line x1="170.5" y1="287.0" x2="326.4649056062812" y2="287.0" stroke="#000000" stroke-width="0.5" /><g id="megumi_face_borders" clip-path="url(#clip_megumi_face)" /><line x1="156.5" y1="210.20734603858307" x2="156.5" y2="287.0" stroke="#000000" stroke-width="0.5" /><line x1="10.0" y1="184.37544336479294" x2="156.5" y2="210.20734603858307" stroke="#000000" stroke-width="0.5" /><line x1="10.0" y1="287.0" x2="156.5" y2="287.0" stroke="#000000" stroke-width="0.5" /></g></svg>