<svg xmlns="http://www.w3.org/2000/svg" xmlns:xlink="http://www.w3.org/1999/xlink" width="210.0mm" height="297.0mm" viewBox="0 0 210.0 297.0"><rect x="0" y="0" width="210.0" height="297.0" fill="#ffffff" /><defs><clipPath id="clip_split1"><rect x="108.0" y="10.0" width="92.0" height="70.75104111258939" /></clipPath><clipPath id="clip_split2"><rect x="108.0" y="70.52895888741061" width="92.0" height="102.07104111258938" /></clipPath></defs><g id="backgrounds_z0"><g id="top1"><rect x="10.0" y="10.0" width="92.0" height="162.6" fill="#ffffff" stroke="none" /></g><g id="split1"><polygon points="108.0,10.0 200.0,10.0 200.0,80.75104111258939 108.0,64.52895888741061" fill="#ffffff" stroke="none" /></g><g id="split2"><polygon points="108.0,70.52895888741061 200.0,86.75104111258939 200.0,172.6 108.0,172.6" fill="#ffffff" stroke="none" /></g><g id="aftermath"><rect x="10.0" y="178.6" width="190.0" height="108.4" fill="#ffffff" stroke="none" /></g></g><g id="borders_z0"><g id="top1_borders"><rect x="10.0" y="10.0" width="92.0" height="162.6" fill="none" stroke="#000000" stroke-width="0.5" /></g><g id="split1_borders" clip-path="url(#clip_split1)" /><line x1="108.0" y1="10.0" x2="108.0" y2="64.52895888741061" stroke="#000000" stroke-width="0.5" /><line x1="200.0" y1="10.0" x2="200.0" y2="80.75104111258939" stroke="#000000" stroke-width="0.5" /><line x1="108.0" y1="10.0" x2="200.0" y2="10.0" stroke="#000000" stroke-width="0.5" /><line x1="108.0" y1="64.52895888741061" x2="200.0" y2="80.75104111258939" stroke="#000000" stroke-width="0.5" /><g id="split2_borders" clip-path="url(#clip_split2)" /><line x1="108.0" y1="70.52895888741061" x2="108.0" y2="172.6" stroke="#000000" stroke-width="0.5" /><line x1="200.0" y1="86.75104111258939" x2="200.0" y2="172.6" stroke="#000000" stroke-width="0.5" /><line x1="108.0" y1="70.52895888741061" x2="200.0" y2="86.75104111258939" stroke="#000000" stroke-width="0.5" /><line x1="108.0" y1="172.6" x2="200.0" y2="172.6" stroke="#000000" stroke-width="0.5" /><g id="aftermath_borders"><rect x="10.0" y="178.6" width="190.0" height="108.4" fill="none" stroke="#000000" stroke-width="0.5" /></g></g></svg>