<svg xmlns="http://www.w3.org/2000/svg" xmlns:xlink="http://www.w3.org/1999/xlink" width="210.0mm" height="297.0mm" viewBox="0 0 210.0 297.0"><rect x="0" y="0" width="210.0" height="297.0" fill="#ffffff" /><defs /><g id="backgrounds_z0"><g id="normal"><rect x="10.0" y="10.0" width="190.0" height="50.6" fill="#f0f0f0" stroke="none" /></g><g id="flow1"><rect x="10.0" y="66.6" width="92.0" height="50.6" fill="#ffffff" stroke="none" /></g><g id="flow2"><rect x="108.0" y="66.6" width="92.0" height="50.6" fill="#ffffff" stroke="none" /></g><g id="connect1"><rect x="10.0" y="123.2" width="92.0" height="50.6" fill="#ffffff" stroke="none" /></g><g id="connect2"><rect x="108.0" y="123.2" width="92.0" height="50.6" fill="#ffffff" stroke="none" /></g><g id="left_only"><rect x="10.0" y="179.8" width="92.0" height="50.6" fill="#ffffff" stroke="none" /></g><g id="right_only"><rect x="108.0" y="179.8" width="92.0" height="50.6" fill="#ffffff" stroke="none" /></g><g id="dramatic"><rect x="10.0" y="236.4" width="190.0" height="50.599999999999994" fill="#fff0e0" stroke="none" /></g></g><g id="borders_z0"><g id="normal_borders"><rect x="10.0" y="10.0" width="190.0" height="50.6" fill="none" stroke="#000000" stroke-width="0.5" /></g><g id="flow1_borders"><line x1="10.0" y1="66.6" x2="10.0" y2="117.19999999999999" stroke="#000000" stroke-width="0.5" /><line x1="102.0" y1="66.6" x2="102.0" y2="117.19999999999999" stroke="#000000" stroke-width="0.5" /><line x1="10.0" y1="66.6" x2="102.0" y2="66.6" stroke="#000000" stroke-width="0.5" /></g><g id="flow2_borders"><line x1="108.0" y1="66.6" x2="108.0" y2="117.19999999999999" stroke="#000000" stroke-width="0.5" /><line x1="200.0" y1="66.6" x2="200.0" y2="117.19999999999999" stroke="#000000" stroke-width="0.5" /><line x1="108.0" y1="66.6" x2="200.0" y2="66.6" stroke="#000000" stroke-width="0.5" /></g><g id="connect1_borders"><line x1="10.0" y1="123.2" x2="10.0" y2="173.8" stroke="#000000" stroke-width="0.5" /><line x1="102.0" y1="123.2" x2="102.0" y2="173.8" stroke="#000000" stroke-width="0.5" /><line x1="10.0" y1="173.8" x2="102.0" y2="173.8" stroke="#000000" stroke-width="0.5" /></g><g id="connect2_borders"><line x1="108.0" y1="123.2" x2="108.0" y2="173.8" stroke="#000000" stroke-width="0.5" /><line x1="200.0" y1="123.2" x2="200.0" y2="173.8" stroke="#000000" stroke-width="0.5" /><line x1="108.0" y1="173.8" x2="200.0" y2="173.8" stroke="#000000" stroke-width="0.5" /></g><g id="left_only_borders"><line x1="10.0" y1="179.8" x2="10.0" y2="230.4" stroke="#000000" stroke-width="0.5" /><line x1="10.0" y1="179.8" x2="102.0" y2="179.8" stroke="#000000" stroke-width="0.5" /><line x1="10.0" y1="230.4" x2="102.0" y2="230.4" stroke="#000000" stroke-width="0.5" /></g><g id="right_only_borders"><line x1="200.0" y1="179.8" x2="200.0" y2="230.4" stroke="#000000" stroke-width="0.5" /><line x1="108.0" y1="179.8" x2="200.0" y2="179.8" stroke="#000000" stroke-width="0.5" /><line x1="108.0" y1="230.4" x2="200.0" y2="230.4" stroke="#000000" stroke-width="0.5" /></g><g id="dramatic_borders"><line x1="10.0" y1="236.4" x2="200.0" y2="236.4" stroke="#000000" stroke-width="0.5" /><line x1="10.0" y1="287.0" x2="200.0" y2="287.0" stroke="#000000" stroke-width="0.5" /></g></g></svg>