<svg xmlns="http://www.w3.org/2000/svg" xmlns:xlink="http://www.w3.org/1999/xlink" width="210.0mm" height="297.0mm" viewBox="0 0 210.0 297.0"><rect x="0" y="0" width="210.0" height="297.0" fill="#ffffff" /><defs><clipPath id="clip_left1"><rect x="10.0" y="10.0" width="106.5569365842962" height="277.0" /></clipPath><clipPath id="clip_right1"><rect x="108.0" y="10.0" width="92.0" height="135.5" /></clipPath><clipPath id="clip_right2"><rect x="93.4430634157038" y="151.5" width="106.5569365842962" height="145.5" /></clipPath></defs><g id="backgrounds_z0"><g id="left1"><polygon points="10.0,10.0 116.5569365842962,10.0 87.4430634157038,287.0 10.0,287.0" fill="#ffffff" stroke="none" /></g><g id="right1"><polygon points="122.5569365842962,10.0 200.0,10.0 200.0,145.5 108.31531270579703,145.5" fill="#ffffff" stroke="none" /></g><g id="right2"><polygon points="107.68468729420297,151.5 200.0,151.5 200.0,297.0 92.39202106304704,297.0" fill="#ffffff" stroke="none" /></g></g><g id="borders_z0"><g id="left1_borders" clip-path="url(#clip_left1)" /><line x1="10.0" y1="10.0" x2="10.0" y2="287.0" stroke="#000000" stroke-width="1.0" /><line x1="116.5569365842962" y1="10.0" x2="87.4430634157038" y2="287.0" stroke="#000000" stroke-width="1.0" /><line x1="10.0" y1="10.0" x2="116.5569365842962" y2="10.0" stroke="#000000" stroke-width="1.0" /><line x1="10.0" y1="287.0" x2="87.4430634157038" y2="287.0" stroke="#000000" stroke-width="1.0" /><g id="right1_borders" clip-path="url(#clip_right1)" /><line x1="122.5569365842962" y1="10.0" x2="108.31531270579703" y2="145.5" stroke="#000000" stroke-width="1.0" /><line x1="200.0" y1="10.0" x2="200.0" y2="145.5" stroke="#000000" stroke-width="1.0" /><line x1="122.5569365842962" y1="10.0" x2="200.0" y2="10.0" stroke="#000000" stroke-width="1.0" /><line x1="108.31531270579703" y1="145.5" x2="200.0" y2="145.5" stroke="#000000" stroke-width="1.0" /><g id="right2_borders" clip-path="url(#clip_right2)" /><line x1="107.68468729420297" y1="151.5" x2="92.39202106304704" y2="297.0" stroke="#000000" stroke-width="1.0" /><line x1="200.0" y1="151.5" x2="200.0" y2="297.0" stroke="#000000" stroke-width="1.0" /><line x1="107.68468729420297" y1="151.5" x2="200.0" y2="151.5" stroke="#000000" stroke-width="1.0" /><line x1="92.39202106304704" y1="297.0" x2="200.0" y2="297.0" stroke="#000000" stroke-width="1.0" /></g></svg>