<svg xmlns="http://www.w3.org/2000/svg" xmlns:xlink="http://www.w3.org/1999/xlink" width="210.0mm" height="297.0mm" viewBox="0 0 210.0 297.0"><rect x="0" y="0" width="210.0" height="297.0" fill="#ffffff" /><defs><clipPath id="clip_top1"><rect x="10.0" y="10.0" width="190.0" height="69.75106316730418" /></clipPath><clipPath id="clip_reaction3"><rect x="10.0" y="52.248936832695826" width="190.0" height="69.75106316730418" /></clipPath></defs><g id="backgrounds_z0"><g id="top1"><polygon points="10.0,10.0 200.0,10.0 200.0,79.75106316730418 10.0,46.248936832695826" fill="#ffffff" stroke="none" /></g><g id="reaction3"><polygon points="10.0,52.248936832695826 200.0,85.75106316730418 200.0,122.0 10.0,122.0" fill="#ffffff" stroke="none" /></g><g id="aftermath"><rect x="10.0" y="128.0" width="190.0" height="159.0" fill="#ffffff" stroke="none" /></g></g><g id="borders_z0"><g id="top1_borders" clip-path="url(#clip_top1)" /><line x1="10.0" y1="10.0" x2="10.0" y2="46.248936832695826" stroke="#000000" stroke-width="1.0" /><line x1="200.0" y1="10.0" x2="200.0" y2="79.75106316730418" stroke="#000000" stroke-width="1.0" /><line x1="10.0" y1="10.0" x2="200.0" y2="10.0" stroke="#000000" stroke-width="1.0" /><line x1="10.0" y1="46.248936832695826" x2="200.0" y2="79.75106316730418" stroke="#000000" stroke-width="1.0" /><g id="reaction3_borders" clip-path="url(#clip_reaction3)" /><line x1="10.0" y1="52.248936832695826" x2="10.0" y2="122.0" stroke="#000000" stroke-width="1.0" /><line x1="200.0" y1="85.75106316730418" x2="200.0" y2="122.0" stroke="#000000" stroke-width="1.0" /><line x1="10.0" y1="52.248936832695826" x2="200.0" y2="85.75106316730418" stroke="#000000" stroke-width="1.0" /><line x1="10.0" y1="122.0" x2="200.0" y2="122.0" stroke="#000000" stroke-width="1.0" /><g id="aftermath_borders"><rect x="10.0" y="128.0" width="190.0" height="159.0" fill="none" stroke="#000000" stroke-width="1.0" /></g></g></svg>