<svg xmlns="http://www.w3.org/2000/svg" xmlns:xlink="http://www.w3.org/1999/xlink" width="210.0mm" height="297.0mm" viewBox="0 0 210.0 297.0"><rect x="0" y="0" width="210.0" height="297.0" fill="#ffffff" /><defs><clipPath id="clip_upper_right"><rect x="130.16295501314127" y="20.0" width="69.83704498685873" height="96.8" /></clipPath><clipPath id="clip_upper_left"><rect x="10.0" y="0.0" width="125.33704498685873" height="116.8" /></clipPath><clipPath id="clip_middle"><rect x="60.0" y="151.8" width="140.0" height="28.079999999999984" /></clipPath></defs><g id="backgrounds_z-1"><g id="lower_right"><rect x="10.0" y="184.88" width="190.0" height="87.12" fill="#ffffff" stroke="none" /></g></g><g id="borders_z-1"><g id="lower_right_borders"><line x1="10.0" y1="184.88" x2="10.0" y2="272.0" stroke="#000000" stroke-width="0.5" /><line x1="10.0" y1="184.88" x2="200.0" y2="184.88" stroke="#000000" stroke-width="0.5" /><line x1="10.0" y1="272.0" x2="200.0" y2="272.0" stroke="#000000" stroke-width="0.5" /></g></g><g id="backgrounds_z0"><g id="upper_right"><polygon points="130.16295501314127,20.0 200.0,20.0 200.0,116.8 140.33704498685873,116.8" fill="#ffffff" stroke="none" /></g><g id="upper_left"><polygon points="10.0,0.0 123.06087030782773,0.0 135.33704498685873,116.8 10.0,116.8" fill="#ffffff" stroke="none" /></g></g><g id="borders_z0"><g id="upper_right_borders" clip-path="url(#clip_upper_right)" /><line x1="130.16295501314127" y1="20.0" x2="140.33704498685873" y2="116.8" stroke="#000000" stroke-width="0.5" /><line x1="200.0" y1="20.0" x2="200.0" y2="116.8" stroke="#000000" stroke-width="0.5" /><line x1="130.16295501314127" y1="20.0" x2="200.0" y2="20.0" stroke="#000000" stroke-width="0.5" /><line x1="140.33704498685873" y1="116.8" x2="200.0" y2="116.8" stroke="#000000" stroke-width="0.5" /><g id="upper_left_borders" clip-path="url(#clip_upper_left)" /><line x1="10.0" y1="0.0" x2="10.0" y2="116.8" stroke="#000000" stroke-width="0.5" /><line x1="123.06087030782773" y1="0.0" x2="135.33704498685873" y2="116.8" stroke="#000000" stroke-width="0.5" /><line x1="10.0" y1="116.8" x2="135.33704498685873" y2="116.8" stroke="#000000" stroke-width="0.5" /></g><g id="backgrounds_z1"><g id="middle"><polygon points="64.02590521605366,151.8 200.0,151.8 200.0,179.88 55.974094783946335,179.88" fill="#ffffff" stroke="none" /></g></g><g id="borders_z1"><g id="middle_borders" clip-path="url(#clip_middle)" /><line x1="64.02590521605366" y1="151.8" x2="55.974094783946335" y2="179.88" stroke="#000000" stroke-width="0.5" /><line x1="64.02590521605366" y1="151.8" x2="200.0" y2="151.8" stroke="#000000" stroke-width="0.5" /><line x1="55.974094783946335" y1="179.88" x2="200.0" y2="179.88" stroke="#000000" stroke-width="0.5" /></g></svg>